<svg id="Layer_1" data-name="Layer 1" xmlns="http://www.w3.org/2000/svg" viewBox="0 0 1080 1080"><defs><style>.cls-1{fill:#b8860b;}</style></defs><path class="cls-1" d="M1003.21,384.87c-.87-2.7-.46-6.74-3.73-7.41s-4.57,3.27-6.45,5.35c-20.74,23-40.88,46.53-62.12,69.06C880.26,505.62,824.66,554.14,768.1,601.61c-5.32,4.46-10.17,5.74-16.83,2.63-27.59-12.93-56.1-23.6-85-33.38-10.43-3.53-12.25-2.79-15.29,7.48-8.27,27.91-16.46,55.83-24.81,83.72C615,699.5,603.82,737,592.28,774.3c-3.09,10-4.54,20.61-9.7,30.93-6.88-57.47-13.61-113.75-20.38-170a36.47,36.47,0,0,1,3.2-20.55c6.9-14.64,13.32-29.5,19.87-44.29,3.76-8.51,3-9.93-5.95-10-26.65-.09-53.3.09-80-.1-7.21,0-8.95,2-5.84,8.78,7.86,17.11,15.18,34.47,22.89,51.65a24.53,24.53,0,0,1,1.72,13.74q-7.83,61.63-15.42,123.32c-1.9,15.37-3.65,30.77-5.47,46.16-2.41-6.51-4.92-12.47-6.81-18.63Q458.72,681.58,427.1,577.8c-3.19-10.47-5-11.28-15.22-7.83-37.64,12.67-74.06,28.16-108.61,47.7-24.44,13.82-47.15,30.09-59.37,56.39s-11.22,51.81,8.56,75C273,773.11,295.71,795,319.62,815.65c42.58,36.86,87.15,70.6,140.55,91.08,48.61,18.63,95.7,17.55,140.32-10.7,32.84-20.8,61.62-46.73,89-74.06A1701.52,1701.52,0,0,0,843.89,645.84c23-30.27,47.31-59.51,71-89.27,14.43-18.16,28.72-36.44,43.06-54.64,2,1.31,1.51,2.91,1.58,4.26,1.73,35.32,0,70.35-6.58,105.24q-22.59,120.14-104.58,211c-65.64,72.67-148.07,116.14-245.12,131.07-46.44,7.14-93.09,6.8-139.56-2.25q-102.21-19.91-183.53-84.15c-61-48.35-105.41-109.2-133.41-181.66q-39.15-101.26-23.64-208.72c11.74-81.55,45.9-152.88,100.78-214.09,42.23-47.1,92.61-83.48,151.55-108.23,67.54-28.35,137.51-38.9,210.13-30.87,76.07,8.41,144.86,35.91,206.47,81q95.87,70.19,142.06,179.27c2.75,6.53,5.18,5.52,9.49,1.92,12.24-10.21,24.41-20.52,37.1-30.14,7.52-5.69,8.21-11.12,4.3-19.54A488.29,488.29,0,0,0,645.69,64.11C602.56,54.73,559,52.56,515.05,53.79c-40.49,1.14-80,8.14-118.67,19.86a470,470,0,0,0-161,85.58C183.86,201,141.12,250,109.83,308.41,81.18,361.93,63.11,418.62,56.22,479A518.58,518.58,0,0,0,65,649.94c10.77,49.2,30.4,95.06,56.43,138.33,41,68.21,95.86,122.93,163.25,165.3a470.14,470.14,0,0,0,153.75,62.11,490.31,490.31,0,0,0,178.18,5c80.2-12.4,152.35-44.1,217-93C897.32,879.51,945.38,819,980,747.58c30.16-62.19,44-128.4,46.8-196.8C1029.07,494.29,1020.53,438.84,1003.21,384.87Z"/><path class="cls-1" d="M568.57,213.69c-43.49-9.3-82.05,3.19-114.64,33-35.47,32.46-48.19,74.22-48.6,104.42-.24,68.35,17.79,112.25,59,145.62,33.69,27.28,71.6,34,112.5,20.33,36-12.06,62.8-36.54,78.84-69.91,29.26-60.88,28.9-121.93-9.62-179.38C627.64,240.38,601.39,220.7,568.57,213.69Z"/></svg>